# This file uses centimeters as units for non-parametric coordinates.

mtllib skybox.mtl
g default
v 0.500000 -0.500000 0.500000
v 0.500000 -0.500000 -0.500000
v -0.500000 -0.500000 0.500000
v -0.500000 -0.500000 -0.500000
v 0.500000 0.500000 -0.500000
v 0.500000 -0.500000 -0.500000
v 0.500000 0.500000 0.500000
v 0.500000 -0.500000 0.500000
v -0.500000 0.500000 0.500000
v -0.500000 0.500000 -0.500000
v 0.500000 0.500000 0.500000
v 0.500000 0.500000 -0.500000
v -0.500000 -0.500000 0.500000
v -0.500000 0.500000 0.500000
v 0.500000 -0.500000 0.500000
v 0.500000 0.500000 0.500000
v -0.500000 0.500000 0.500000
v -0.500000 -0.500000 0.500000
v -0.500000 0.500000 -0.500000
v -0.500000 -0.500000 -0.500000
v -0.500000 0.500000 -0.500000
v -0.500000 -0.500000 -0.500000
v 0.500000 0.500000 -0.500000
v 0.500000 -0.500000 -0.500000
vt 0.335965 0.663054
vt 0.335965 0.333574
vt 0.665445 0.333574
vt 0.665445 0.663054
vt 0.001890 0.998008
vt 0.001890 0.668528
vt 0.331370 0.668528
vt 0.331370 0.998008
vt 0.331370 0.001992
vt 0.331370 0.331472
vt 0.001891 0.331472
vt 0.001891 0.001992
vt 0.331573 0.330716
vt 0.331573 0.001236
vt 0.661053 0.001236
vt 0.661053 0.330716
vt 0.663923 0.669691
vt 0.662864 0.999169
vt 0.333385 0.998109
vt 0.334445 0.668631
vt 0.003169 0.662175
vt 0.003169 0.332695
vt 0.332649 0.332695
vt 0.332649 0.662175
vn 0.000000 1.000000 0.000000
vn 0.000000 1.000000 0.000000
vn 0.000000 1.000000 0.000000
vn 0.000000 1.000000 0.000000
vn -1.000000 0.000000 0.000000
vn -1.000000 0.000000 0.000000
vn -1.000000 0.000000 0.000000
vn -1.000000 0.000000 0.000000
vn 0.000000 -1.000000 0.000000
vn 0.000000 -1.000000 0.000000
vn 0.000000 -1.000000 0.000000
vn 0.000000 -1.000000 0.000000
vn 0.000000 0.000000 -1.000000
vn 0.000000 0.000000 -1.000000
vn 0.000000 0.000000 -1.000000
vn 0.000000 0.000000 -1.000000
vn 1.000000 0.000000 0.000000
vn 1.000000 0.000000 0.000000
vn 1.000000 0.000000 0.000000
vn 1.000000 0.000000 0.000000
vn 0.000000 0.000000 1.000000
vn 0.000000 0.000000 1.000000
vn 0.000000 0.000000 1.000000
vn 0.000000 0.000000 1.000000
s off
g polySurface4
usemtl lambert13SG
f 1/9/1 2/10/2 4/11/3 3/12/4
f 5/1/5 6/2/6 8/3/7 7/4/8
f 9/13/9 10/14/10 12/15/11 11/16/12
f 13/17/13 14/18/14 16/19/15 15/20/16
f 17/5/17 18/6/18 20/7/19 19/8/20
f 21/21/21 22/22/22 24/23/23 23/24/24
